HIERARCHY
ROOT Hips
{
	OFFSET 0.000000 83.214638 0.000000
	CHANNELS 6 Xposition Yposition Zposition Xrotation Yrotation Zrotation
	JOINT Pelvis
	{
		OFFSET 0.000000 0.000000 0.000000
		CHANNELS 3 Xrotation Yrotation Zrotation
		JOINT LeftUpLeg
		{
			OFFSET 8.479700 -4.795502 -0.379100
			CHANNELS 3 Xrotation Yrotation Zrotation
			JOINT LeftLeg
			{
				OFFSET 0.024144 -32.555107 0.112900
				CHANNELS 3 Xrotation Yrotation Zrotation
				JOINT LeftFoot
				{
					OFFSET -0.024144 -32.638630 -3.012600
					CHANNELS 3 Xrotation Yrotation Zrotation
					JOINT LeftToeBase
					{
						OFFSET 0.970200 -13.225400 11.864200
						CHANNELS 3 Xrotation Yrotation Zrotation
						End Site
						{
							OFFSET 0.000000 12.319262 0.000000
						}
					}
					JOINT LFootTongue
					{
						OFFSET 1.142400 -1.059800 6.665200
						CHANNELS 3 Xrotation Yrotation Zrotation
						End Site
						{
							OFFSET 0.000000 12.319262 0.000000
						}
					}
				}
				JOINT LeftPantLeg
				{
					OFFSET 0.918482 -16.533964 -2.284700
					CHANNELS 3 Xrotation Yrotation Zrotation
					End Site
					{
						OFFSET 0.350399 24.744368 0.000000
					}
				}
			}
		}
		JOINT RightUpLeg
		{
			OFFSET -8.479700 -4.795502 -0.379100
			CHANNELS 3 Xrotation Yrotation Zrotation
			JOINT RightLeg
			{
				OFFSET -0.023144 -32.555092 0.112900
				CHANNELS 3 Xrotation Yrotation Zrotation
				JOINT RightFoot
				{
					OFFSET 0.023144 -32.638641 -3.012700
					CHANNELS 3 Xrotation Yrotation Zrotation
					JOINT RightToeBase
					{
						OFFSET -0.970200 -13.225400 11.864200
						CHANNELS 3 Xrotation Yrotation Zrotation
						End Site
						{
							OFFSET 0.000000 12.319244 0.000000
						}
					}
					JOINT RFootTongue
					{
						OFFSET -1.142200 -1.059800 6.665200
						CHANNELS 3 Xrotation Yrotation Zrotation
						End Site
						{
							OFFSET 0.000000 12.319243 0.000000
						}
					}
				}
				JOINT RightPantLeg
				{
					OFFSET -0.919482 -16.533978 -2.284800
					CHANNELS 3 Xrotation Yrotation Zrotation
					End Site
					{
						OFFSET -0.350400 24.744419 0.000000
					}
				}
			}
		}
	}
	JOINT Spine
	{
		OFFSET 0.000000 7.722000 1.166200
		CHANNELS 3 Xrotation Yrotation Zrotation
		JOINT Spine1
		{
			OFFSET 0.000000 12.024101 0.248800
			CHANNELS 3 Xrotation Yrotation Zrotation
			JOINT Spine2
			{
				OFFSET 0.000000 11.502998 -0.491200
				CHANNELS 3 Xrotation Yrotation Zrotation
				JOINT Neck
				{
					OFFSET 0.000000 18.430702 -3.123100
					CHANNELS 3 Xrotation Yrotation Zrotation
					JOINT Head
					{
						OFFSET 0.000000 9.051102 1.034000
						CHANNELS 3 Xrotation Yrotation Zrotation
						JOINT HairB
						{
							OFFSET 0.208400 24.786102 24.822300
							CHANNELS 3 Xrotation Yrotation Zrotation
							End Site
							{
								OFFSET 0.000000 32.263779 0.000000
							}
						}
						JOINT HairA
						{
							OFFSET -7.081100 24.428299 23.196600
							CHANNELS 3 Xrotation Yrotation Zrotation
							End Site
							{
								OFFSET 0.000000 32.263779 0.000000
							}
						}
						JOINT Hat
						{
							OFFSET 16.728800 15.048294 -15.439601
							CHANNELS 3 Xrotation Yrotation Zrotation
							End Site
							{
								OFFSET 0.000000 32.263779 0.000000
							}
						}
					}
				}
				JOINT LeftShoulder
				{
					OFFSET 6.197800 13.665199 -4.064700
					CHANNELS 3 Xrotation Yrotation Zrotation
					JOINT LeftArm
					{
						OFFSET 7.778100 -0.187103 -1.709300
						CHANNELS 3 Xrotation Yrotation Zrotation
						JOINT LeftForeArm
						{
							OFFSET 22.049376 0.000000 0.000000
							CHANNELS 3 Xrotation Yrotation Zrotation
							JOINT LeftHand
							{
								OFFSET 23.009392 0.000000 0.000000
								CHANNELS 3 Xrotation Yrotation Zrotation
								JOINT LeftHandThumb1
								{
									OFFSET 3.507191 -2.063065 3.133727
									CHANNELS 3 Xrotation Yrotation Zrotation
									JOINT LeftHandThumb2
									{
										OFFSET 3.101337 -1.790558 1.790558
										CHANNELS 3 Xrotation Yrotation Zrotation
										JOINT LeftHandThumb3
										{
											OFFSET 3.058640 -1.765907 1.765906
											CHANNELS 3 Xrotation Yrotation Zrotation
											End Site
											{
												OFFSET -0.415260 3.926476 -0.049563
											}
										}
									}
								}
								JOINT LeftHandIndex1
								{
									OFFSET 11.334419 -0.901459 3.706815
									CHANNELS 3 Xrotation Yrotation Zrotation
									JOINT LeftHandIndex2
									{
										OFFSET 3.283112 0.000000 0.000000
										CHANNELS 3 Xrotation Yrotation Zrotation
										JOINT LeftHandIndex3
										{
											OFFSET 3.323853 0.000000 0.000000
											CHANNELS 3 Xrotation Yrotation Zrotation
											End Site
											{
												OFFSET -1.135597 3.097809 0.402452
											}
										}
									}
								}
								JOINT LeftHandMiddle1
								{
									OFFSET 11.335861 0.000000 0.000000
									CHANNELS 3 Xrotation Yrotation Zrotation
									JOINT LeftHandMiddle2
									{
										OFFSET 3.410492 0.000000 0.000000
										CHANNELS 3 Xrotation Yrotation Zrotation
										JOINT LeftHandMiddle3
										{
											OFFSET 3.312172 0.000000 0.000000
											CHANNELS 3 Xrotation Yrotation Zrotation
											End Site
											{
												OFFSET -1.150200 3.080154 0.400270
											}
										}
									}
								}
								JOINT LeftHandRing1
								{
									OFFSET 11.514786 -0.013176 -3.003090
									CHANNELS 3 Xrotation Yrotation Zrotation
									JOINT LeftHandRing2
									{
										OFFSET 3.053307 0.000000 0.000000
										CHANNELS 3 Xrotation Yrotation Zrotation
										JOINT LeftHandRing3
										{
											OFFSET 3.295807 0.000000 0.000000
											CHANNELS 3 Xrotation Yrotation Zrotation
											End Site
											{
												OFFSET -1.281006 3.013344 0.375733
											}
										}
									}
								}
								JOINT LeftHandPinky1
								{
									OFFSET 10.518692 -0.960396 -5.730441
									CHANNELS 3 Xrotation Yrotation Zrotation
									JOINT LeftHandPinky2
									{
										OFFSET 2.861649 0.000000 0.000000
										CHANNELS 3 Xrotation Yrotation Zrotation
										JOINT LeftHandPinky3
										{
											OFFSET 2.863380 0.000000 0.000000
											CHANNELS 3 Xrotation Yrotation Zrotation
											End Site
											{
												OFFSET -0.843597 2.711159 0.369971
											}
										}
									}
								}
							}
							JOINT LSleeve
							{
								OFFSET 6.676277 -0.344902 -1.011730
								CHANNELS 3 Xrotation Yrotation Zrotation
								End Site
								{
									OFFSET 0.000000 14.885353 0.000000
								}
							}
						}
					}
				}
				JOINT RightShoulder
				{
					OFFSET -6.197800 13.665199 -4.064700
					CHANNELS 3 Xrotation Yrotation Zrotation
					JOINT RightArm
					{
						OFFSET -7.778100 -0.187103 -1.709300
						CHANNELS 3 Xrotation Yrotation Zrotation
						JOINT RightForeArm
						{
							OFFSET -22.049376 0.000000 0.000000
							CHANNELS 3 Xrotation Yrotation Zrotation
							JOINT RightHand
							{
								OFFSET -23.009392 0.000000 0.000000
								CHANNELS 3 Xrotation Yrotation Zrotation
								JOINT RightHandThumb1
								{
									OFFSET -3.507191 -2.063065 3.133727
									CHANNELS 3 Xrotation Yrotation Zrotation
									JOINT RightHandThumb2
									{
										OFFSET -3.101337 -1.790558 1.790558
										CHANNELS 3 Xrotation Yrotation Zrotation
										JOINT RightHandThumb3
										{
											OFFSET -3.058640 -1.765907 1.765906
											CHANNELS 3 Xrotation Yrotation Zrotation
											End Site
											{
												OFFSET 0.415260 3.926476 -0.049563
											}
										}
									}
								}
								JOINT RightHandIndex1
								{
									OFFSET -11.334419 -0.901459 3.706815
									CHANNELS 3 Xrotation Yrotation Zrotation
									JOINT RightHandIndex2
									{
										OFFSET -3.283112 0.000000 0.000000
										CHANNELS 3 Xrotation Yrotation Zrotation
										JOINT RightHandIndex3
										{
											OFFSET -3.323853 0.000000 0.000000
											CHANNELS 3 Xrotation Yrotation Zrotation
											End Site
											{
												OFFSET 1.135597 3.097809 0.402452
											}
										}
									}
								}
								JOINT RightHandMiddle1
								{
									OFFSET -11.335861 0.000000 0.000000
									CHANNELS 3 Xrotation Yrotation Zrotation
									JOINT RightHandMiddle2
									{
										OFFSET -3.410492 0.000000 0.000000
										CHANNELS 3 Xrotation Yrotation Zrotation
										JOINT RightHandMiddle3
										{
											OFFSET -3.312172 0.000000 0.000000
											CHANNELS 3 Xrotation Yrotation Zrotation
											End Site
											{
												OFFSET 1.150200 3.080154 0.400270
											}
										}
									}
								}
								JOINT RightHandRing1
								{
									OFFSET -11.514786 -0.013176 -3.003090
									CHANNELS 3 Xrotation Yrotation Zrotation
									JOINT RightHandRing2
									{
										OFFSET -3.053307 0.000000 0.000000
										CHANNELS 3 Xrotation Yrotation Zrotation
										JOINT RightHandRing3
										{
											OFFSET -3.295807 0.000000 0.000000
											CHANNELS 3 Xrotation Yrotation Zrotation
											End Site
											{
												OFFSET 1.281006 3.013344 0.375733
											}
										}
									}
								}
								JOINT RightHandPinky1
								{
									OFFSET -10.518692 -0.960396 -5.730441
									CHANNELS 3 Xrotation Yrotation Zrotation
									JOINT RightHandPinky2
									{
										OFFSET -2.861649 0.000000 0.000000
										CHANNELS 3 Xrotation Yrotation Zrotation
										JOINT RightHandPinky3
										{
											OFFSET -2.863380 0.000000 0.000000
											CHANNELS 3 Xrotation Yrotation Zrotation
											End Site
											{
												OFFSET 0.843597 2.711159 0.369971
											}
										}
									}
								}
							}
							JOINT RSleeve
							{
								OFFSET -6.676277 -0.344902 -1.011730
								CHANNELS 3 Xrotation Yrotation Zrotation
								End Site
								{
									OFFSET 0.000000 14.885353 0.000000
								}
							}
						}
					}
				}
				JOINT Backpack
				{
					OFFSET 0.000000 -2.471497 36.677502
					CHANNELS 3 Xrotation Yrotation Zrotation
					End Site
					{
						OFFSET 0.000000 20.427315 0.000000
					}
				}
				JOINT Hood
				{
					OFFSET 0.000000 18.754097 -10.431000
					CHANNELS 3 Xrotation Yrotation Zrotation
					JOINT Hood1
					{
						OFFSET 0.000000 -5.011002 -7.685901
						CHANNELS 3 Xrotation Yrotation Zrotation
						End Site
						{
							OFFSET 0.000000 9.175140 0.000000
						}
					}
				}
				JOINT LHoodieString
				{
					OFFSET 5.250500 16.397697 3.089900
					CHANNELS 3 Xrotation Yrotation Zrotation
					JOINT LHoodieString1
					{
						OFFSET 0.257700 -6.364304 3.694600
						CHANNELS 3 Xrotation Yrotation Zrotation
						JOINT LHoodieString2
						{
							OFFSET 0.000000 -9.643799 2.679100
							CHANNELS 3 Xrotation Yrotation Zrotation
							End Site
							{
								OFFSET 0.000000 10.009018 0.000000
							}
						}
					}
				}
				JOINT RHoodieString
				{
					OFFSET -5.250500 16.397697 3.089900
					CHANNELS 3 Xrotation Yrotation Zrotation
					JOINT RHoodieString1
					{
						OFFSET -0.257700 -6.364304 3.694600
						CHANNELS 3 Xrotation Yrotation Zrotation
						JOINT RHoodieString2
						{
							OFFSET 0.000000 -9.643799 2.679100
							CHANNELS 3 Xrotation Yrotation Zrotation
							End Site
							{
								OFFSET 0.000000 10.009018 0.000000
							}
						}
					}
				}
			}
			JOINT LBackpack_Strap
			{
				OFFSET 15.223200 -7.719803 -6.610900
				CHANNELS 3 Xrotation Yrotation Zrotation
				End Site
				{
					OFFSET 0.000000 16.040596 0.000000
				}
			}
			JOINT RBackpack_Strap
			{
				OFFSET -15.223000 -7.719803 -6.610900
				CHANNELS 3 Xrotation Yrotation Zrotation
				End Site
				{
					OFFSET 0.000000 16.040596 0.000000
				}
			}
		}
	}
	JOINT BoyFacialAnim_Joint
	{
		OFFSET 1.000000 -82.208099 -1.550900
		CHANNELS 3 Xrotation Yrotation Zrotation
		End Site
		{
			OFFSET 0.000000 30.012791 0.000000
		}
	}
}
MOTION
Frames: 5
Frame Time: 0.016667
-0.169202 73.867889 0.174977 3.016509 -58.257354 6.570235 -0.000000 -0.000000 -0.000000 -35.249865 10.175199 24.287755 43.161154 -7.481277 -9.789067 -9.608922 -2.809829 -8.081555 0.000000 -0.000003 0.000000 0.000000 -0.000003 0.000000 0.000001 -0.000001 0.000001 -32.837466 -8.273079 -25.543058 48.057901 2.419849 -7.553119 -19.172992 2.835484 20.742429 -0.000000 0.000001 0.000000 -0.000000 0.000001 0.000000 0.000001 -0.000000 0.000001 11.191589 0.111548 -2.787770 8.434584 0.027708 -5.592326 8.457049 0.027865 -5.591872 -21.555645 25.063367 12.062564 -0.294043 25.465752 -3.208974 0.000000 -0.000000 0.000000 0.000000 -0.000000 0.000000 0.000000 -0.000000 0.000000 -6.221668 -11.503859 -4.023826 -23.062176 9.568548 -36.639600 0.046109 -43.169121 -0.011165 22.743751 -5.685855 15.979284 -1.064236 -7.954920 8.490075 2.373417 19.986086 -2.038339 0.000001 0.000000 -0.000001 13.340881 -1.006690 10.682255 -0.167581 0.303390 -31.105634 -0.000002 0.000003 -0.000005 8.495448 -0.329575 -0.915318 0.231515 0.661200 -29.901865 -0.000001 -0.000001 -0.000002 6.111754 3.150877 -16.210966 0.047060 0.322404 -30.125485 -0.000001 0.000000 -0.000002 -5.636018 7.709852 -13.878622 0.224393 0.276608 -46.588382 -0.000002 -0.000000 0.000001 0.000002 0.000001 -0.000001 -5.488235 10.658259 2.466538 -41.473810 -26.755577 30.079071 24.955505 111.862987 -23.308505 -8.702508 12.423035 -9.801978 0.265005 10.061111 -10.888478 1.383832 -17.412881 3.016295 -0.000000 0.000001 0.000000 19.443604 11.174441 -13.340184 -0.118656 -0.322729 18.035593 -0.000001 -0.000001 -0.000000 4.320487 2.436928 -4.811723 0.349131 -0.461235 26.890327 -0.000001 -0.000002 0.000001 -7.005606 -10.695161 5.719851 0.111856 -0.089200 26.155888 -0.000001 -0.000002 0.000000 -19.433498 -20.238224 5.987872 0.223776 -0.085834 36.844547 -0.000002 -0.000001 -0.000002 -0.000001 -0.000001 -0.000003 0.000001 -0.000002 0.000001 0.000001 -0.000002 0.000001 0.000001 -0.000002 0.000001 0.000001 -0.000002 0.000001 0.000001 -0.000002 0.000001 0.000001 -0.000000 -0.000000 0.000001 -0.000002 0.000001 0.000001 -0.000002 0.000001 0.000001 -0.000000 -0.000000 0.000001 0.000002 -0.000000 0.000001 0.000002 -0.000000 -0.000000 -0.000000 -0.000000 
-0.197763 73.832428 0.241130 2.478258 -58.252764 6.036107 -0.000000 0.000002 -0.000000 -35.058173 10.118963 24.332791 43.436585 -7.559962 -9.706771 -9.807238 -2.759630 -8.084500 -0.000000 -0.000001 0.000000 -0.000000 -0.000001 0.000000 0.000001 0.000000 0.000001 -32.759090 -8.723273 -26.014681 48.206563 3.071473 -7.154163 -19.277468 2.936596 20.308230 -0.000000 0.000001 0.000000 -0.000000 0.000001 0.000000 -0.000001 -0.000000 -0.000001 11.181232 0.100000 -2.763599 8.413343 0.007713 -5.542170 8.435804 0.007773 -5.541681 -21.652147 24.945118 12.088956 0.094811 25.159309 -2.954652 0.000000 0.000000 -0.000000 0.000000 0.000000 -0.000000 0.000000 0.000000 -0.000000 -6.261269 -11.506434 -4.015206 -22.811116 9.698545 -36.516616 0.794402 -43.624111 0.229670 22.724104 -5.775155 15.786092 -1.337178 -8.592349 8.462107 2.372323 19.986665 -2.038319 0.000001 -0.000001 0.000000 13.509670 -1.097525 9.424773 -0.159032 0.305452 -31.104063 -0.000001 0.000001 -0.000002 8.477592 -0.230310 -1.799018 0.234810 0.664027 -29.734337 0.000001 -0.000001 -0.000002 6.088942 3.437369 -16.790623 0.051251 0.330263 -29.912103 -0.000002 0.000001 -0.000000 -5.699337 8.273532 -13.976713 0.209849 0.283996 -46.588502 -0.000002 0.000003 -0.000001 0.000000 -0.000001 0.000004 -5.513968 10.443167 2.326543 -40.253471 -26.263814 30.874299 22.710826 111.299476 -21.321718 -8.758538 12.223509 -9.454593 -0.163830 10.339076 -11.464027 1.370541 -17.420157 3.013300 0.000002 -0.000000 0.000001 19.534085 10.739027 -14.196803 -0.102122 -0.326649 17.430837 -0.000000 0.000000 0.000004 4.417747 2.218600 -5.481772 0.352854 -0.461298 26.461883 -0.000000 -0.000002 -0.000000 -6.982934 -10.920052 5.218393 0.085186 -0.090076 25.880157 -0.000003 0.000002 0.000001 -19.427665 -20.205267 5.922303 0.228609 -0.095115 36.799533 -0.000004 -0.000001 0.000000 -0.000000 0.000003 0.000001 -0.000002 -0.000001 -0.000000 -0.000002 -0.000001 -0.000000 -0.000002 -0.000001 -0.000000 -0.000002 -0.000001 -0.000000 -0.000002 -0.000001 -0.000000 -0.000002 -0.000001 -0.000000 -0.000002 -0.000001 -0.000000 -0.000002 -0.000001 -0.000000 -0.000002 -0.000001 -0.000000 0.000003 0.000000 -0.000001 0.000003 0.000000 -0.000001 -0.000000 0.000002 -0.000000 
-0.313123 73.718399 0.426931 1.757326 -58.195302 5.327261 -0.000000 -0.000001 0.000000 -34.858594 9.987930 24.445898 44.112418 -7.763545 -9.697534 -10.324014 -2.699372 -8.007179 0.000000 0.000002 -0.000000 0.000000 0.000002 -0.000000 0.000000 -0.000004 0.000002 -32.508644 -9.127921 -26.507208 48.532336 3.635037 -6.871058 -19.597382 2.951930 20.115501 -0.000000 0.000003 0.000000 -0.000000 0.000003 0.000000 -0.000002 -0.000000 0.000001 11.142268 0.069099 -2.698596 8.334205 -0.045757 -5.404249 8.356677 -0.045666 -5.403785 -21.836700 24.626047 12.153090 0.665320 24.715287 -2.781585 0.000000 0.000001 0.000001 0.000000 0.000001 0.000001 0.000000 0.000001 0.000001 -6.328837 -11.488485 -3.983639 -22.131667 10.073036 -36.144029 2.769404 -44.886873 0.926428 22.664437 -6.014881 15.253916 -1.443748 -9.455567 7.932151 2.372348 19.986681 -2.038381 0.000001 0.000001 -0.000000 13.845187 -1.532818 7.580813 -0.159332 0.304567 -30.882871 0.000000 -0.000000 0.000002 8.524451 -0.343978 -3.219834 0.234607 0.663871 -29.653003 0.000001 -0.000001 0.000002 6.136560 3.595732 -17.915508 0.051094 0.329947 -29.853599 -0.000003 -0.000000 -0.000002 -5.678616 8.863562 -14.718651 0.209867 0.283916 -46.588526 -0.000001 0.000002 -0.000002 0.000000 -0.000001 0.000003 -5.548075 9.866013 1.937128 -37.030540 -24.874096 32.856922 15.981582 109.909191 -15.220725 -8.898762 11.688158 -8.523757 -1.286787 11.106072 -12.958743 1.370527 -17.420117 3.013316 -0.000001 -0.000001 0.000000 19.732823 9.623679 -16.324693 -0.104586 -0.322136 15.920293 -0.000002 0.000002 0.000002 4.635085 1.638518 -7.128993 0.347182 -0.458690 25.403422 -0.000005 0.000000 -0.000002 -6.943904 -11.513895 4.011805 0.085688 -0.087026 25.221619 -0.000003 0.000000 -0.000003 -19.419905 -20.160475 5.828239 0.228556 -0.095026 36.736524 -0.000001 0.000001 0.000002 -0.000001 -0.000003 -0.000001 0.000001 -0.000000 -0.000001 0.000001 -0.000000 -0.000001 0.000001 -0.000000 -0.000001 0.000001 -0.000000 -0.000001 0.000001 -0.000000 -0.000000 -0.000000 0.000002 -0.000001 0.000001 -0.000000 -0.000001 0.000001 -0.000000 -0.000000 -0.000000 0.000002 -0.000001 0.000001 -0.000000 0.000001 0.000001 -0.000000 0.000001 -0.000000 -0.000001 0.000000 
-0.501147 73.568031 0.698668 0.910080 -58.081805 4.490058 -0.000000 0.000001 -0.000000 -34.624203 9.892083 24.673990 44.947426 -8.156692 -9.803637 -11.007272 -2.644118 -7.807175 -0.000000 -0.000000 0.000000 -0.000000 -0.000000 0.000000 0.000000 -0.000001 -0.000000 -32.059118 -9.493502 -26.936183 48.899281 4.033865 -6.713493 -20.035588 2.906704 20.100308 -0.000000 -0.000000 -0.000000 -0.000000 -0.000000 -0.000000 -0.000001 -0.000001 -0.000002 11.077121 0.023363 -2.601805 8.202123 -0.124049 -5.198299 8.224615 -0.123934 -5.197835 -22.026520 24.153016 12.233264 1.675684 24.083962 -2.871052 0.000000 0.000000 -0.000001 0.000000 0.000000 -0.000001 0.000000 0.000000 -0.000001 -6.417282 -11.419017 -3.918484 -21.132120 10.674321 -35.524466 5.610356 -46.795491 2.096774 22.562475 -6.361050 14.453066 -1.492394 -10.414524 7.157438 2.372326 19.986657 -2.038316 0.000001 0.000000 0.000002 14.236162 -2.165273 5.410898 -0.159329 0.304536 -30.877147 0.000001 0.000002 -0.000007 8.587914 -0.569223 -4.948589 0.234560 0.663871 -29.620218 0.000001 -0.000000 0.000004 6.219791 3.684090 -19.350759 0.051117 0.329988 -29.860224 -0.000001 -0.000001 -0.000001 -5.600350 9.470261 -15.793790 0.209858 0.283941 -46.588536 0.000000 0.000002 0.000000 -0.000001 0.000001 0.000001 -5.599943 9.021862 1.345364 -32.495103 -22.695863 35.348148 4.343990 108.342134 -4.332269 -9.075120 10.910047 -7.177480 -2.857447 12.259155 -15.019033 1.370551 -17.420177 3.013343 -0.000001 0.000002 -0.000000 19.872225 8.134593 -19.053711 -0.107664 -0.316143 13.960277 0.000001 0.000002 -0.000001 4.859956 0.812333 -9.209675 0.340105 -0.454429 24.055609 -0.000004 0.000000 0.000002 -6.928751 -12.352442 2.546297 0.086263 -0.083369 24.433234 -0.000000 0.000001 0.000001 -19.409207 -20.187495 5.864951 0.228625 -0.095084 36.763736 -0.000002 0.000001 0.000000 0.000003 -0.000006 -0.000003 -0.000000 -0.000003 0.000001 -0.000000 -0.000003 0.000001 -0.000000 -0.000003 0.000001 -0.000000 -0.000003 0.000001 -0.000000 -0.000003 0.000001 -0.000000 0.000003 -0.000002 -0.000000 -0.000003 0.000001 -0.000000 -0.000003 0.000001 -0.000000 0.000003 -0.000002 0.000002 -0.000000 0.000001 0.000002 -0.000000 0.000001 -0.000000 0.000001 -0.000000 
-0.747998 73.415321 1.022712 -0.006103 -57.910353 3.571840 -0.000000 0.000002 0.000000 -34.328647 9.814290 24.920095 45.815816 -8.624071 -9.885184 -11.770113 -2.590619 -7.593386 -0.000000 -0.000001 0.000000 -0.000000 -0.000001 0.000000 0.000001 0.000000 0.000000 -31.372439 -9.777485 -27.214014 49.201527 4.194270 -6.676406 -20.524259 2.809128 20.262067 0.000000 0.000002 -0.000000 0.000000 0.000002 -0.000000 0.000000 -0.000000 -0.000000 10.987758 -0.031846 -2.482134 8.021433 -0.218880 -4.943913 8.043891 -0.218781 -4.943434 -22.139452 23.571254 12.309608 3.256179 23.328153 -2.898962 0.000000 -0.000000 0.000001 0.000000 -0.000000 0.000001 0.000000 -0.000000 0.000001 -6.517729 -11.266677 -3.808852 -19.916943 11.490695 -34.664272 8.966829 -49.187877 3.756292 22.416155 -6.768650 13.453253 -1.464884 -11.408669 6.107624 2.372333 19.986689 -2.038320 0.000001 0.000001 -0.000001 14.656374 -3.033272 2.956116 -0.159205 0.304905 -30.964861 0.000001 -0.000002 -0.000002 8.656533 -0.945725 -6.983258 0.234687 0.663916 -29.676602 -0.000001 -0.000006 -0.000001 6.338260 3.647322 -21.124074 0.051469 0.330566 -29.965146 -0.000000 0.000001 -0.000000 -5.444966 10.031129 -17.259658 0.209866 0.283992 -46.588505 0.000002 0.000001 -0.000000 0.000001 0.000002 -0.000001 -5.677149 8.006202 0.598007 -27.295046 -19.926469 37.715444 -12.036736 107.511733 11.420377 -9.243306 9.984264 -5.582235 -4.641246 13.688738 -17.288267 1.370514 -17.420136 3.013334 -0.000002 -0.000002 0.000000 19.877959 6.576165 -21.728423 -0.110419 -0.310511 12.006849 -0.000001 0.000000 0.000005 5.013289 -0.129852 -11.184200 0.333359 -0.450090 22.759085 -0.000001 -0.000006 0.000001 -6.944774 -13.302888 1.268557 0.086830 -0.080352 23.767822 -0.000000 -0.000001 -0.000005 -19.378244 -20.372953 6.197070 0.228530 -0.095348 36.989238 -0.000003 0.000001 0.000002 -0.000001 -0.000000 0.000002 -0.000000 0.000003 -0.000001 -0.000000 0.000003 -0.000001 -0.000000 0.000003 -0.000001 -0.000000 0.000003 -0.000001 -0.000000 0.000003 -0.000000 -0.000001 0.000000 0.000000 -0.000000 0.000003 -0.000001 -0.000000 0.000003 -0.000000 -0.000001 0.000000 0.000000 0.000001 0.000001 0.000000 0.000001 0.000001 0.000000 -0.000000 0.000002 0.000000 
